<svg xmlns="http://www.w3.org/2000/svg" xmlns:xlink="http://www.w3.org/1999/xlink" width="1080" viewBox="0 0 810 809.999993" height="1080" preserveAspectRatio="xMidYMid meet"><defs><clipPath id="id1"><path d="M 363 159.46875 L 380 159.46875 L 380 176 L 363 176 Z M 363 159.46875 " clip-rule="nonzero"></path></clipPath><clipPath id="id2"><path d="M 1 357 L 226 357 L 226 650.71875 L 1 650.71875 Z M 1 357 " clip-rule="nonzero"></path></clipPath></defs><rect x="-81" width="972" fill="#ffffff" y="-80.999999" height="971.999992" fill-opacity="1"></rect><rect x="-81" width="972" fill="#ffffff" y="-80.999999" height="971.999992" fill-opacity="1"></rect><g clip-path="url(#id1)"><path fill="#6db42d" d="M 371.558594 175.074219 C 375.859375 175.074219 379.359375 171.574219 379.359375 167.269531 C 379.359375 162.96875 375.859375 159.46875 371.558594 159.46875 C 367.257812 159.46875 363.761719 162.96875 363.761719 167.269531 C 363.761719 171.574219 367.257812 175.074219 371.558594 175.074219 Z M 371.558594 163.417969 C 373.683594 163.417969 375.410156 165.148438 375.410156 167.269531 C 375.410156 169.394531 373.683594 171.125 371.558594 171.125 C 369.4375 171.125 367.710938 169.394531 367.710938 167.269531 C 367.710938 165.148438 369.4375 163.417969 371.558594 163.417969 Z M 371.558594 163.417969 " fill-opacity="1" fill-rule="nonzero"></path></g><path fill="#6db42d" d="M 547.097656 249.347656 C 556.527344 249.347656 564.199219 241.671875 564.199219 232.238281 C 564.199219 222.804688 556.527344 215.128906 547.097656 215.128906 C 537.664062 215.128906 529.992188 222.804688 529.992188 232.238281 C 529.992188 241.671875 537.664062 249.347656 547.097656 249.347656 Z M 547.097656 219.078125 C 554.347656 219.078125 560.25 224.980469 560.25 232.238281 C 560.25 239.496094 554.347656 245.398438 547.097656 245.398438 C 539.84375 245.398438 533.941406 239.496094 533.941406 232.238281 C 533.941406 224.980469 539.84375 219.078125 547.097656 219.078125 Z M 547.097656 219.078125 " fill-opacity="1" fill-rule="nonzero"></path><path fill="#6db42d" d="M 446.527344 370.265625 C 446.527344 379.65625 453.734375 387.390625 462.90625 388.238281 L 461.183594 391.382812 L 422.414062 391.382812 C 414.535156 391.382812 414.535156 420.035156 422.414062 420.035156 L 445.476562 420.035156 L 439.085938 431.691406 C 437.238281 430.261719 434.925781 429.398438 432.414062 429.398438 C 426.386719 429.398438 421.480469 434.304688 421.480469 440.335938 C 421.480469 445.074219 424.515625 449.105469 428.738281 450.621094 C 427.699219 452.5625 426.765625 454.542969 425.894531 456.550781 C 423.753906 455.457031 421.335938 454.824219 418.765625 454.824219 C 410.101562 454.824219 403.054688 461.875 403.054688 470.542969 C 403.054688 471.988281 403.269531 473.386719 403.636719 474.71875 L 371.292969 470.773438 C 377.28125 470.726562 382.140625 465.84375 382.140625 459.839844 C 382.140625 453.8125 377.238281 448.90625 371.210938 448.90625 C 365.183594 448.90625 360.277344 453.8125 360.277344 459.839844 C 360.277344 464.957031 363.8125 469.253906 368.566406 470.441406 L 323.21875 464.910156 L 322.835938 468.046875 L 404.976562 478.066406 C 405.722656 479.429688 406.667969 480.667969 407.769531 481.746094 L 342.664062 472.714844 L 342.445312 474.28125 L 410.15625 483.671875 C 412.632812 485.304688 415.589844 486.257812 418.765625 486.257812 C 419 486.257812 419.230469 486.234375 419.464844 486.222656 C 419.453125 486.714844 419.417969 487.203125 419.417969 487.691406 L 419.417969 498.753906 C 418.859375 498.695312 418.296875 498.660156 417.722656 498.660156 C 413.957031 498.660156 410.5 499.996094 407.789062 502.214844 L 332.90625 474.769531 L 332.363281 476.253906 L 406.484375 503.417969 C 405.472656 504.453125 404.601562 505.625 403.90625 506.90625 L 321.160156 474.722656 L 320.015625 477.667969 L 402.691406 509.824219 C 402.25 511.265625 402.011719 512.792969 402.011719 514.378906 C 402.011719 516.007812 402.261719 517.578125 402.722656 519.058594 C 402.535156 519.054688 402.347656 519.027344 402.160156 519.027344 C 386.257812 519.027344 373.320312 531.972656 373.320312 547.878906 C 373.320312 563.789062 386.257812 576.730469 402.160156 576.730469 C 402.261719 576.730469 402.355469 576.71875 402.457031 576.714844 C 404.78125 583.34375 411.082031 588.117188 418.488281 588.117188 C 419.453125 588.117188 420.390625 588.019531 421.308594 587.863281 C 424.78125 587.28125 427.898438 585.652344 430.320312 583.296875 C 435.882812 588.019531 442.929688 590.65625 450.261719 590.65625 L 773.304688 590.65625 C 781.195312 590.65625 788.785156 587.632812 794.515625 582.203125 C 800.664062 576.375 804.148438 568.273438 804.148438 559.804688 L 804.148438 487.695312 C 804.148438 474.496094 800.820312 461.507812 794.476562 449.9375 L 778.085938 420.035156 L 801.152344 420.035156 C 809.027344 420.035156 809.027344 391.382812 801.152344 391.382812 L 762.378906 391.382812 L 730.113281 332.523438 C 724.570312 322.40625 714.03125 316.039062 702.5 315.832031 L 611.78125 314.210938 L 610.917969 314.226562 C 611.285156 313.128906 611.496094 311.960938 611.496094 310.738281 C 611.496094 304.710938 606.59375 299.804688 600.5625 299.804688 C 594.535156 299.804688 589.632812 304.710938 589.632812 310.738281 C 589.632812 312.097656 589.890625 313.394531 590.347656 314.59375 L 561.390625 315.109375 C 561.121094 303.460938 551.585938 294.0625 539.878906 294.0625 C 528 294.0625 518.339844 303.730469 518.339844 315.609375 C 518.339844 315.746094 518.355469 315.875 518.359375 316.007812 C 507.902344 317.078125 498.558594 323.207031 493.449219 332.523438 L 478.820312 359.210938 C 475.515625 354.957031 470.367188 352.207031 464.578125 352.207031 C 454.625 352.207031 446.527344 360.308594 446.527344 370.265625 Z M 371.210938 452.855469 C 375.0625 452.855469 378.195312 455.988281 378.195312 459.839844 C 378.195312 463.691406 375.0625 466.828125 371.210938 466.828125 C 367.359375 466.828125 364.226562 463.691406 364.226562 459.839844 C 364.226562 455.988281 367.359375 452.855469 371.210938 452.855469 Z M 476.695312 363.085938 L 465.039062 384.347656 C 464.886719 384.355469 464.734375 384.371094 464.578125 384.371094 C 456.800781 384.371094 450.476562 378.042969 450.476562 370.265625 C 450.476562 362.484375 456.800781 356.15625 464.578125 356.15625 C 469.730469 356.15625 474.238281 358.945312 476.695312 363.085938 Z M 465.714844 440.210938 C 459.230469 440.210938 453.953125 434.933594 453.953125 428.445312 C 453.953125 421.957031 459.230469 416.675781 465.714844 416.675781 C 472.203125 416.675781 477.480469 421.957031 477.480469 428.445312 C 477.480469 434.933594 472.203125 440.210938 465.714844 440.210938 Z M 445.40625 470.484375 C 445.980469 460.515625 454.527344 452.90625 464.488281 453.484375 C 466.851562 453.621094 469.132812 454.234375 471.152344 455.179688 L 513.390625 475.109375 C 517.894531 477.234375 519.824219 482.613281 517.699219 487.117188 C 516.082031 490.542969 512.582031 492.476562 509.019531 492.277344 L 462.402344 489.574219 C 452.4375 488.996094 444.828125 480.449219 445.40625 470.484375 Z M 543.675781 481.910156 C 543.675781 478.058594 546.808594 474.925781 550.660156 474.925781 C 554.507812 474.925781 557.640625 478.058594 557.640625 481.910156 C 557.640625 485.761719 554.507812 488.898438 550.660156 488.898438 C 546.808594 488.898438 543.675781 485.761719 543.675781 481.910156 Z M 418.488281 584.167969 C 411.292969 584.167969 405.4375 578.3125 405.4375 571.113281 C 405.4375 563.914062 411.292969 558.054688 418.488281 558.054688 C 425.6875 558.054688 431.542969 563.914062 431.542969 571.113281 C 431.542969 578.3125 425.6875 584.167969 418.488281 584.167969 Z M 402.160156 522.980469 C 403.003906 522.980469 403.839844 523.023438 404.664062 523.105469 C 407.488281 527.316406 412.285156 530.09375 417.722656 530.09375 C 418.296875 530.09375 418.859375 530.058594 419.417969 530 L 419.417969 554.152344 C 419.109375 554.136719 418.804688 554.105469 418.488281 554.105469 C 409.117188 554.105469 401.488281 561.734375 401.488281 571.113281 C 401.488281 571.664062 401.519531 572.210938 401.574219 572.75 C 388.121094 572.433594 377.269531 561.410156 377.269531 547.878906 C 377.269531 534.148438 388.433594 522.980469 402.160156 522.980469 Z M 405.960938 514.378906 C 405.960938 507.890625 411.238281 502.609375 417.722656 502.609375 C 424.210938 502.609375 429.484375 507.890625 429.484375 514.378906 C 429.484375 520.867188 424.210938 526.144531 417.722656 526.144531 C 411.238281 526.144531 405.960938 520.867188 405.960938 514.378906 Z M 407.003906 470.542969 C 407.003906 464.054688 412.28125 458.773438 418.765625 458.773438 C 425.253906 458.773438 430.53125 464.050781 430.53125 470.542969 C 430.53125 477.03125 425.253906 482.308594 418.765625 482.308594 C 412.28125 482.308594 407.003906 477.03125 407.003906 470.542969 Z M 439.398438 440.335938 C 439.398438 444.1875 436.265625 447.320312 432.414062 447.320312 C 428.5625 447.320312 425.429688 444.1875 425.429688 440.335938 C 425.429688 436.484375 428.5625 433.351562 432.414062 433.351562 C 436.265625 433.351562 439.398438 436.484375 439.398438 440.335938 Z M 476.035156 546.429688 C 476.035156 553.628906 470.183594 559.488281 462.984375 559.488281 C 455.789062 559.488281 449.933594 553.628906 449.933594 546.429688 C 449.933594 539.230469 455.789062 533.375 462.984375 533.375 C 470.179688 533.375 476.035156 539.230469 476.035156 546.429688 Z M 667.691406 567.707031 C 667.691406 569.4375 666.289062 570.839844 664.5625 570.839844 L 559.003906 570.839844 C 557.273438 570.839844 555.875 569.4375 555.875 567.707031 L 555.875 547.386719 C 555.875 545.660156 557.273438 544.257812 559.003906 544.257812 L 664.5625 544.257812 C 666.289062 544.257812 667.691406 545.660156 667.691406 547.386719 Z M 581.933594 452.730469 C 581.933594 448.875 585.066406 445.742188 588.917969 445.742188 C 592.769531 445.742188 595.902344 448.875 595.902344 452.730469 C 595.902344 456.582031 592.769531 459.714844 588.917969 459.714844 C 585.066406 459.714844 581.933594 456.582031 581.933594 452.730469 Z M 776.464844 463.820312 C 780.71875 472.847656 776.851562 483.621094 767.828125 487.878906 C 765.6875 488.886719 763.390625 489.441406 761.164062 489.574219 L 714.542969 492.277344 C 709.570312 492.5625 705.308594 488.765625 705.019531 483.792969 C 704.800781 480.007812 706.949219 476.636719 710.175781 475.109375 L 752.414062 455.179688 C 761.4375 450.921875 772.203125 454.789062 776.464844 463.820312 Z M 593.582031 310.738281 C 593.582031 306.886719 596.714844 303.753906 600.5625 303.753906 C 604.414062 303.753906 607.546875 306.886719 607.546875 310.738281 C 607.546875 312.046875 607.164062 313.257812 606.539062 314.304688 L 594.707031 314.515625 C 594 313.425781 593.582031 312.132812 593.582031 310.738281 Z M 522.296875 315.808594 C 522.296875 315.742188 522.285156 315.675781 522.285156 315.609375 C 522.285156 305.90625 530.179688 298.011719 539.878906 298.011719 C 549.429688 298.011719 557.214844 305.679688 557.445312 315.179688 Z M 506.410156 339.636719 C 509.40625 334.167969 515.101562 330.726562 521.332031 330.617188 L 611.78125 329 L 702.234375 330.617188 C 708.464844 330.726562 714.15625 334.167969 717.152344 339.632812 L 763.59375 424.347656 C 765.660156 428.121094 762.933594 432.734375 758.628906 432.734375 L 480.816406 432.734375 C 481.207031 431.367188 481.429688 429.933594 481.429688 428.445312 C 481.429688 419.984375 474.707031 413.082031 466.328125 412.757812 Z M 506.410156 339.636719 " fill-opacity="1" fill-rule="nonzero"></path><path fill="#6db42d" d="M 378.730469 514.515625 C 378.730469 510.097656 375.136719 506.503906 370.722656 506.503906 C 366.304688 506.503906 362.710938 510.097656 362.710938 514.515625 C 362.710938 518.933594 366.304688 522.527344 370.722656 522.527344 C 375.136719 522.527344 378.730469 518.933594 378.730469 514.515625 Z M 370.722656 518.578125 C 368.484375 518.578125 366.660156 516.757812 366.660156 514.515625 C 366.660156 512.277344 368.484375 510.453125 370.722656 510.453125 C 372.960938 510.453125 374.78125 512.277344 374.78125 514.515625 C 374.78125 516.757812 372.960938 518.578125 370.722656 518.578125 Z M 370.722656 518.578125 " fill-opacity="1" fill-rule="nonzero"></path><path fill="#6db42d" d="M 315.328125 523.875 C 315.328125 532.492188 322.335938 539.503906 330.953125 539.503906 C 339.566406 539.503906 346.578125 532.492188 346.578125 523.875 C 346.578125 515.253906 339.566406 508.242188 330.953125 508.242188 C 322.335938 508.242188 315.328125 515.253906 315.328125 523.875 Z M 319.277344 523.875 C 319.277344 517.433594 324.515625 512.195312 330.953125 512.195312 C 337.390625 512.195312 342.628906 517.433594 342.628906 523.875 C 342.628906 530.316406 337.390625 535.554688 330.953125 535.554688 C 324.515625 535.554688 319.277344 530.316406 319.277344 523.875 Z M 319.277344 523.875 " fill-opacity="1" fill-rule="nonzero"></path><path fill="#6db42d" d="M 484.929688 319.761719 C 493.257812 319.761719 500.035156 312.984375 500.035156 304.652344 C 500.035156 296.320312 493.257812 289.539062 484.929688 289.539062 C 476.597656 289.539062 469.824219 296.320312 469.824219 304.652344 C 469.824219 312.984375 476.597656 319.761719 484.929688 319.761719 Z M 484.929688 293.492188 C 491.082031 293.492188 496.085938 298.496094 496.085938 304.652344 C 496.085938 310.804688 491.082031 315.8125 484.929688 315.8125 C 478.777344 315.8125 473.773438 310.804688 473.773438 304.652344 C 473.773438 298.496094 478.777344 293.492188 484.929688 293.492188 Z M 484.929688 293.492188 " fill-opacity="1" fill-rule="nonzero"></path><path fill="#6db42d" d="M 450.261719 599.53125 C 441.75 599.53125 433.59375 596.832031 426.824219 591.867188 L 426.824219 630.265625 C 426.824219 632.667969 428.769531 634.613281 431.171875 634.613281 L 470.8125 634.613281 C 473.210938 634.613281 475.160156 632.667969 475.160156 630.265625 L 475.160156 599.53125 Z M 450.261719 599.53125 " fill-opacity="1" fill-rule="nonzero"></path><path fill="#6db42d" d="M 773.300781 599.53125 L 748.40625 599.53125 L 748.40625 630.265625 C 748.40625 632.667969 750.355469 634.613281 752.753906 634.613281 L 792.394531 634.613281 C 794.796875 634.613281 796.742188 632.667969 796.742188 630.265625 L 796.742188 591.867188 C 789.972656 596.832031 781.816406 599.53125 773.300781 599.53125 Z M 773.300781 599.53125 " fill-opacity="1" fill-rule="nonzero"></path><path fill="#6db42d" d="M 588.507812 335.699219 L 635.054688 335.699219 L 635.054688 347.421875 L 588.507812 347.421875 Z M 588.507812 335.699219 " fill-opacity="1" fill-rule="nonzero"></path><path fill="#6db42d" d="M 255.375 467.386719 C 252.640625 466.621094 249.789062 468.117188 248.863281 470.800781 L 233.75 514.640625 C 232.746094 517.558594 234.402344 520.71875 237.371094 521.550781 L 265.164062 529.34375 C 268.132812 530.175781 271.1875 528.335938 271.84375 525.324219 L 281.714844 480.011719 C 282.320312 477.238281 280.65625 474.476562 277.925781 473.710938 Z M 277.996094 479.203125 L 268.125 524.511719 C 268.003906 525.082031 267.625 525.382812 267.410156 525.511719 C 267.195312 525.640625 266.75 525.835938 266.191406 525.675781 L 238.398438 517.882812 C 237.835938 517.726562 237.558594 517.332031 237.441406 517.109375 C 237.324219 516.886719 237.160156 516.433594 237.347656 515.882812 L 252.460938 472.042969 C 252.726562 471.265625 253.558594 470.832031 254.347656 471.054688 L 276.898438 477.378906 C 277.6875 477.597656 278.167969 478.402344 277.996094 479.203125 Z M 277.996094 479.203125 " fill-opacity="1" fill-rule="nonzero"></path><path fill="#6db42d" d="M 245.0625 455.117188 L 257.386719 458.570312 L 255.980469 463.582031 L 279.382812 470.144531 L 280.363281 466.648438 L 294.21875 470.53125 L 294.992188 467.773438 L 316.175781 473.714844 L 317.535156 468.871094 L 296.347656 462.929688 L 297.121094 460.171875 L 283.269531 456.289062 L 284.25 452.789062 L 260.84375 446.226562 L 259.441406 451.238281 L 246.957031 447.738281 C 246.917969 450.273438 246.289062 452.804688 245.0625 455.117188 Z M 245.0625 455.117188 " fill-opacity="1" fill-rule="nonzero"></path><path fill="#6db42d" d="M 262.824219 519.496094 L 264.070312 513.925781 L 266.546875 514.480469 L 265.300781 520.050781 Z M 262.824219 519.496094 " fill-opacity="1" fill-rule="nonzero"></path><path fill="#6db42d" d="M 265.339844 508.257812 L 271.828125 479.246094 L 274.304688 479.800781 L 267.816406 508.8125 Z M 265.339844 508.257812 " fill-opacity="1" fill-rule="nonzero"></path><path fill="#6db42d" d="M 88.738281 607.078125 C 82.71875 616.171875 85.207031 628.429688 94.296875 634.453125 C 97.652344 636.675781 101.4375 637.738281 105.179688 637.738281 C 111.582031 637.738281 117.859375 634.628906 121.660156 628.890625 C 143.792969 595.453125 150.78125 564.777344 150.890625 539.492188 L 104.117188 501.554688 C 113.195312 524.226562 118.710938 561.800781 88.738281 607.078125 Z M 88.738281 607.078125 " fill-opacity="1" fill-rule="nonzero"></path><path fill="#6db42d" d="M 181.078125 594.472656 C 180.738281 597.773438 180.410156 600.976562 180.074219 604.082031 L 186.550781 624.53125 C 189.214844 632.949219 196.988281 638.324219 205.367188 638.324219 C 207.34375 638.324219 209.351562 638.027344 211.335938 637.398438 C 221.730469 634.105469 227.488281 623.003906 224.195312 612.605469 L 196.511719 525.171875 C 195.980469 523.488281 195.214844 521.898438 194.269531 520.429688 C 186.097656 545.550781 183.433594 571.46875 181.078125 594.472656 Z M 181.078125 594.472656 " fill-opacity="1" fill-rule="nonzero"></path><path fill="#6db42d" d="M 194.617188 371.300781 C 213.878906 375.070312 232.546875 362.507812 236.316406 343.234375 C 240.082031 323.964844 227.527344 305.289062 208.261719 301.519531 C 189 297.75 170.332031 310.316406 166.5625 329.582031 C 162.792969 348.855469 175.355469 367.53125 194.617188 371.300781 Z M 194.617188 371.300781 " fill-opacity="1" fill-rule="nonzero"></path><path fill="#6db42d" d="M 158.179688 384.695312 C 155.828125 378.121094 148.589844 374.703125 142.023438 377.054688 C 135.453125 379.410156 132.035156 386.644531 134.386719 393.21875 L 155.425781 452.015625 C 157.238281 457.078125 162.03125 460.394531 167.316406 460.394531 C 167.738281 460.394531 168.160156 460.375 168.585938 460.332031 L 220.253906 455.140625 L 222.382812 457.003906 C 227.632812 461.601562 235.617188 461.074219 240.214844 455.816406 C 244.808594 450.5625 244.277344 442.578125 239.027344 437.980469 L 232.769531 432.5 C 230.132812 430.195312 226.679688 429.085938 223.183594 429.4375 L 175.890625 434.1875 Z M 158.179688 384.695312 " fill-opacity="1" fill-rule="nonzero"></path><g clip-path="url(#id2)"><path fill="#6db42d" d="M 64.703125 643.300781 C 76.816406 649.453125 93.074219 650.695312 111.933594 650.695312 C 118.117188 650.695312 124.582031 650.5625 131.273438 650.425781 C 138.378906 650.277344 145.730469 650.125 153.238281 650.125 C 169.085938 650.125 172.929688 631.113281 176.066406 603.460938 C 176.394531 600.566406 176.71875 597.578125 177.042969 594.507812 L 177.089844 594.652344 C 177.109375 594.457031 177.128906 594.265625 177.148438 594.070312 C 179.476562 571.328125 182.378906 543.148438 191.308594 516.839844 C 191.230469 516.765625 191.152344 516.695312 191.074219 516.625 C 191.480469 515.382812 191.902344 514.144531 192.335938 512.910156 C 198.035156 496.699219 206.058594 481.101562 217.664062 467.613281 L 218.722656 468.765625 L 225.199219 462.796875 C 223.304688 462.117188 221.53125 461.089844 219.992188 459.742188 L 219.046875 458.914062 L 218.070312 459.011719 L 213.5625 463.164062 L 214.972656 464.691406 C 203.152344 478.320312 194.929688 493.984375 189.074219 510.253906 C 188.636719 511.46875 188.207031 512.683594 187.796875 513.902344 L 134.703125 470.726562 L 134.710938 470.722656 C 137.503906 460.03125 141.96875 449.351562 146.984375 439.203125 L 130.964844 394.441406 C 129.5 390.347656 129.71875 385.929688 131.574219 382 C 133.433594 378.070312 136.707031 375.097656 140.800781 373.632812 C 142.570312 373 144.414062 372.675781 146.28125 372.675781 C 153.132812 372.675781 159.289062 377.015625 161.601562 383.472656 L 168.035156 401.457031 C 176.328125 388.085938 176.285156 369.585938 165.039062 362.378906 C 153.335938 354.882812 132.472656 355.570312 117.546875 374.953125 C 97.179688 401.71875 88.359375 420.640625 81.015625 455.207031 C 79.984375 462.886719 80.671875 468.976562 82.5 473.878906 C 83.464844 477.976562 85.722656 481.804688 89.238281 484.664062 L 96.515625 490.578125 L 160.652344 542.734375 L 174.070312 585.125 C 173.828125 587.382812 173.589844 589.609375 173.363281 591.78125 C 173.277344 592.570312 173.195312 593.351562 173.113281 594.128906 C 169.890625 624.480469 167.246094 646.175781 153.238281 646.175781 C 145.6875 646.175781 138.316406 646.328125 131.191406 646.472656 C 104.628906 647.023438 81.695312 647.5 66.492188 639.777344 C 46.394531 629.570312 2.890625 634.15625 1.046875 634.355469 L 1.472656 638.285156 C 1.914062 638.238281 45.652344 633.625 64.703125 643.300781 Z M 64.703125 643.300781 " fill-opacity="1" fill-rule="nonzero"></path></g><path fill="#6db42d" d="M 505.925781 410.5 C 513.320312 410.5 519.335938 404.484375 519.335938 397.089844 C 519.335938 389.691406 513.320312 383.675781 505.925781 383.675781 C 498.535156 383.675781 492.519531 389.691406 492.519531 397.089844 C 492.519531 404.484375 498.535156 410.5 505.925781 410.5 Z M 505.925781 387.625 C 511.144531 387.625 515.386719 391.871094 515.386719 397.089844 C 515.386719 402.304688 511.144531 406.550781 505.925781 406.550781 C 500.710938 406.550781 496.46875 402.304688 496.46875 397.089844 C 496.46875 391.871094 500.710938 387.625 505.925781 387.625 Z M 505.925781 387.625 " fill-opacity="1" fill-rule="nonzero"></path><path fill="#6db42d" d="M 387.035156 435.8125 C 393.0625 435.8125 397.964844 430.90625 397.964844 424.875 C 397.964844 418.847656 393.0625 413.941406 387.035156 413.941406 C 381.007812 413.941406 376.101562 418.847656 376.101562 424.875 C 376.101562 430.90625 381.007812 435.8125 387.035156 435.8125 Z M 394.019531 424.875 C 394.019531 428.726562 390.886719 431.863281 387.035156 431.863281 C 383.183594 431.863281 380.050781 428.726562 380.050781 424.875 C 380.050781 421.023438 383.183594 417.890625 387.035156 417.890625 C 390.886719 417.890625 394.019531 421.023438 394.019531 424.875 Z M 394.019531 424.875 " fill-opacity="1" fill-rule="nonzero"></path><path fill="#6db42d" d="M 372.277344 598.328125 C 372.277344 604.359375 377.179688 609.265625 383.207031 609.265625 C 389.238281 609.265625 394.140625 604.359375 394.140625 598.328125 C 394.140625 592.296875 389.238281 587.394531 383.207031 587.394531 C 377.179688 587.394531 372.277344 592.296875 372.277344 598.328125 Z M 383.207031 605.316406 C 379.359375 605.316406 376.226562 602.179688 376.226562 598.328125 C 376.226562 594.476562 379.359375 591.34375 383.207031 591.34375 C 387.058594 591.34375 390.191406 594.476562 390.191406 598.328125 C 390.191406 602.179688 387.058594 605.316406 383.207031 605.316406 Z M 383.207031 605.316406 " fill-opacity="1" fill-rule="nonzero"></path><path fill="#6db42d" d="M 291.59375 574.671875 C 291.59375 580.703125 296.496094 585.605469 302.523438 585.605469 C 308.550781 585.605469 313.457031 580.703125 313.457031 574.671875 C 313.457031 568.640625 308.550781 563.734375 302.523438 563.734375 C 296.496094 563.734375 291.59375 568.640625 291.59375 574.671875 Z M 295.542969 574.671875 C 295.542969 570.820312 298.675781 567.683594 302.523438 567.683594 C 306.375 567.683594 309.507812 570.820312 309.507812 574.671875 C 309.507812 578.523438 306.375 581.65625 302.523438 581.65625 C 298.675781 581.65625 295.542969 578.523438 295.542969 574.671875 Z M 295.542969 574.671875 " fill-opacity="1" fill-rule="nonzero"></path><path fill="#6db42d" d="M 322.691406 243.960938 C 326.992188 243.960938 330.492188 240.460938 330.492188 236.15625 C 330.492188 231.855469 326.992188 228.355469 322.691406 228.355469 C 318.390625 228.355469 314.894531 231.855469 314.894531 236.15625 C 314.894531 240.460938 318.390625 243.960938 322.691406 243.960938 Z M 322.691406 232.304688 C 324.816406 232.304688 326.542969 234.035156 326.542969 236.15625 C 326.542969 238.28125 324.816406 240.007812 322.691406 240.007812 C 320.570312 240.007812 318.839844 238.28125 318.839844 236.15625 C 318.839844 234.035156 320.570312 232.304688 322.691406 232.304688 Z M 322.691406 232.304688 " fill-opacity="1" fill-rule="nonzero"></path><path fill="#6db42d" d="M 401.636719 243.960938 C 405.9375 243.960938 409.4375 240.460938 409.4375 236.15625 C 409.4375 231.855469 405.9375 228.355469 401.636719 228.355469 C 397.335938 228.355469 393.839844 231.855469 393.839844 236.15625 C 393.839844 240.460938 397.335938 243.960938 401.636719 243.960938 Z M 401.636719 232.304688 C 403.761719 232.304688 405.488281 234.035156 405.488281 236.15625 C 405.488281 238.28125 403.761719 240.007812 401.636719 240.007812 C 399.515625 240.007812 397.789062 238.28125 397.789062 236.15625 C 397.789062 234.035156 399.515625 232.304688 401.636719 232.304688 Z M 401.636719 232.304688 " fill-opacity="1" fill-rule="nonzero"></path><path fill="#6db42d" d="M 586.65625 273.949219 C 590.957031 273.949219 594.457031 270.445312 594.457031 266.144531 C 594.457031 261.84375 590.957031 258.339844 586.65625 258.339844 C 582.355469 258.339844 578.855469 261.84375 578.855469 266.144531 C 578.855469 270.445312 582.355469 273.949219 586.65625 273.949219 Z M 586.65625 262.292969 C 588.777344 262.292969 590.507812 264.019531 590.507812 266.144531 C 590.507812 268.269531 588.777344 269.996094 586.65625 269.996094 C 584.53125 269.996094 582.804688 268.269531 582.804688 266.144531 C 582.804688 264.019531 584.53125 262.292969 586.65625 262.292969 Z M 586.65625 262.292969 " fill-opacity="1" fill-rule="nonzero"></path><path fill="#6db42d" d="M 294.089844 364.664062 C 298.386719 364.664062 301.886719 361.164062 301.886719 356.863281 C 301.886719 352.558594 298.386719 349.058594 294.089844 349.058594 C 289.789062 349.058594 286.289062 352.558594 286.289062 356.863281 C 286.289062 361.164062 289.789062 364.664062 294.089844 364.664062 Z M 294.089844 353.007812 C 296.210938 353.007812 297.9375 354.738281 297.9375 356.863281 C 297.9375 358.984375 296.210938 360.714844 294.089844 360.714844 C 291.964844 360.714844 290.238281 358.984375 290.238281 356.863281 C 290.238281 354.738281 291.964844 353.007812 294.089844 353.007812 Z M 294.089844 353.007812 " fill-opacity="1" fill-rule="nonzero"></path><path fill="#6db42d" d="M 406.003906 333.179688 C 406.003906 339.210938 410.910156 344.117188 416.9375 344.117188 C 422.964844 344.117188 427.871094 339.210938 427.871094 333.179688 C 427.871094 327.148438 422.964844 322.246094 416.9375 322.246094 C 410.910156 322.246094 406.003906 327.148438 406.003906 333.179688 Z M 416.9375 326.195312 C 420.789062 326.195312 423.921875 329.328125 423.921875 333.179688 C 423.921875 337.03125 420.789062 340.167969 416.9375 340.167969 C 413.085938 340.167969 409.953125 337.03125 409.953125 333.179688 C 409.953125 329.328125 413.085938 326.195312 416.9375 326.195312 Z M 416.9375 326.195312 " fill-opacity="1" fill-rule="nonzero"></path><path fill="#6db42d" d="M 485.277344 229.828125 C 491.304688 229.828125 496.207031 224.921875 496.207031 218.890625 C 496.207031 212.863281 491.304688 207.957031 485.277344 207.957031 C 479.25 207.957031 474.34375 212.863281 474.34375 218.890625 C 474.34375 224.921875 479.25 229.828125 485.277344 229.828125 Z M 485.277344 211.90625 C 489.125 211.90625 492.257812 215.039062 492.257812 218.890625 C 492.257812 222.742188 489.125 225.878906 485.277344 225.878906 C 481.425781 225.878906 478.292969 222.742188 478.292969 218.890625 C 478.292969 215.039062 481.425781 211.90625 485.277344 211.90625 Z M 485.277344 211.90625 " fill-opacity="1" fill-rule="nonzero"></path><path fill="#6db42d" d="M 574.480469 302.191406 C 580.507812 302.191406 585.414062 297.285156 585.414062 291.257812 C 585.414062 285.226562 580.507812 280.320312 574.480469 280.320312 C 568.453125 280.320312 563.546875 285.226562 563.546875 291.257812 C 563.546875 297.285156 568.453125 302.191406 574.480469 302.191406 Z M 574.480469 284.269531 C 578.332031 284.269531 581.464844 287.40625 581.464844 291.257812 C 581.464844 295.109375 578.332031 298.242188 574.480469 298.242188 C 570.628906 298.242188 567.496094 295.109375 567.496094 291.257812 C 567.496094 287.40625 570.628906 284.269531 574.480469 284.269531 Z M 574.480469 284.269531 " fill-opacity="1" fill-rule="nonzero"></path><path fill="#6db42d" d="M 449.28125 341.679688 C 455.308594 341.679688 460.214844 336.773438 460.214844 330.746094 C 460.214844 324.714844 455.308594 319.808594 449.28125 319.808594 C 443.253906 319.808594 438.347656 324.714844 438.347656 330.746094 C 438.347656 336.773438 443.253906 341.679688 449.28125 341.679688 Z M 449.28125 323.757812 C 453.132812 323.757812 456.265625 326.894531 456.265625 330.746094 C 456.265625 334.597656 453.132812 337.730469 449.28125 337.730469 C 445.429688 337.730469 442.296875 334.597656 442.296875 330.746094 C 442.296875 326.894531 445.429688 323.757812 449.28125 323.757812 Z M 449.28125 323.757812 " fill-opacity="1" fill-rule="nonzero"></path><path fill="#6db42d" d="M 365.835938 370.40625 C 365.835938 376.4375 370.742188 381.34375 376.769531 381.34375 C 382.796875 381.34375 387.703125 376.4375 387.703125 370.40625 C 387.703125 364.375 382.796875 359.46875 376.769531 359.46875 C 370.742188 359.46875 365.835938 364.375 365.835938 370.40625 Z M 376.769531 377.390625 C 372.917969 377.390625 369.785156 374.257812 369.785156 370.40625 C 369.785156 366.554688 372.917969 363.421875 376.769531 363.421875 C 380.621094 363.421875 383.753906 366.554688 383.753906 370.40625 C 383.753906 374.257812 380.621094 377.390625 376.769531 377.390625 Z M 376.769531 377.390625 " fill-opacity="1" fill-rule="nonzero"></path><path fill="#6db42d" d="M 451.890625 288.101562 C 457.917969 288.101562 462.820312 283.195312 462.820312 277.167969 C 462.820312 271.136719 457.917969 266.230469 451.890625 266.230469 C 445.863281 266.230469 440.957031 271.136719 440.957031 277.167969 C 440.957031 283.195312 445.863281 288.101562 451.890625 288.101562 Z M 451.890625 270.179688 C 455.738281 270.179688 458.871094 273.316406 458.871094 277.167969 C 458.871094 281.019531 455.738281 284.152344 451.890625 284.152344 C 448.039062 284.152344 444.90625 281.019531 444.90625 277.167969 C 444.90625 273.316406 448.039062 270.179688 451.890625 270.179688 Z M 451.890625 270.179688 " fill-opacity="1" fill-rule="nonzero"></path><path fill="#6db42d" d="M 356.078125 297.671875 C 362.105469 297.671875 367.007812 292.765625 367.007812 286.734375 C 367.007812 280.703125 362.105469 275.796875 356.078125 275.796875 C 350.050781 275.796875 345.144531 280.703125 345.144531 286.734375 C 345.144531 292.765625 350.050781 297.671875 356.078125 297.671875 Z M 356.078125 279.75 C 359.925781 279.75 363.058594 282.882812 363.058594 286.734375 C 363.058594 290.585938 359.925781 293.71875 356.078125 293.71875 C 352.226562 293.71875 349.09375 290.585938 349.09375 286.734375 C 349.09375 282.882812 352.226562 279.75 356.078125 279.75 Z M 356.078125 279.75 " fill-opacity="1" fill-rule="nonzero"></path><path fill="#6db42d" d="M 658.46875 263.75 C 664.496094 263.75 669.402344 258.84375 669.402344 252.8125 C 669.402344 246.78125 664.496094 241.875 658.46875 241.875 C 652.441406 241.875 647.535156 246.78125 647.535156 252.8125 C 647.535156 258.84375 652.441406 263.75 658.46875 263.75 Z M 658.46875 245.828125 C 662.320312 245.828125 665.453125 248.960938 665.453125 252.8125 C 665.453125 256.664062 662.320312 259.800781 658.46875 259.800781 C 654.617188 259.800781 651.484375 256.664062 651.484375 252.8125 C 651.484375 248.960938 654.617188 245.828125 658.46875 245.828125 Z M 658.46875 245.828125 " fill-opacity="1" fill-rule="nonzero"></path><path fill="#6db42d" d="M 523.710938 281.1875 C 529.738281 281.1875 534.640625 276.28125 534.640625 270.25 C 534.640625 264.21875 529.738281 259.3125 523.710938 259.3125 C 517.683594 259.3125 512.777344 264.21875 512.777344 270.25 C 512.777344 276.28125 517.683594 281.1875 523.710938 281.1875 Z M 530.695312 270.25 C 530.695312 274.101562 527.5625 277.238281 523.710938 277.238281 C 519.859375 277.238281 516.726562 274.101562 516.726562 270.25 C 516.726562 266.398438 519.859375 263.265625 523.710938 263.265625 C 527.5625 263.265625 530.695312 266.398438 530.695312 270.25 Z M 530.695312 270.25 " fill-opacity="1" fill-rule="nonzero"></path><path fill="#6db42d" d="M 566.65625 423.265625 C 572.683594 423.265625 577.589844 418.359375 577.589844 412.328125 C 577.589844 406.300781 572.683594 401.394531 566.65625 401.394531 C 560.628906 401.394531 555.722656 406.300781 555.722656 412.328125 C 555.722656 418.359375 560.628906 423.265625 566.65625 423.265625 Z M 566.65625 405.34375 C 570.507812 405.34375 573.640625 408.476562 573.640625 412.328125 C 573.640625 416.183594 570.507812 419.316406 566.65625 419.316406 C 562.804688 419.316406 559.671875 416.183594 559.671875 412.328125 C 559.671875 408.476562 562.804688 405.34375 566.65625 405.34375 Z M 566.65625 405.34375 " fill-opacity="1" fill-rule="nonzero"></path><path fill="#6db42d" d="M 575.699219 382.386719 C 581.726562 382.386719 586.628906 377.480469 586.628906 371.449219 C 586.628906 365.417969 581.726562 360.511719 575.699219 360.511719 C 569.671875 360.511719 564.765625 365.417969 564.765625 371.449219 C 564.765625 377.480469 569.671875 382.386719 575.699219 382.386719 Z M 575.699219 364.464844 C 579.546875 364.464844 582.679688 367.597656 582.679688 371.449219 C 582.679688 375.300781 579.546875 378.4375 575.699219 378.4375 C 571.847656 378.4375 568.714844 375.300781 568.714844 371.449219 C 568.714844 367.597656 571.847656 364.464844 575.699219 364.464844 Z M 575.699219 364.464844 " fill-opacity="1" fill-rule="nonzero"></path><path fill="#6db42d" d="M 530.3125 371.601562 C 536.339844 371.601562 541.246094 366.695312 541.246094 360.664062 C 541.246094 354.632812 536.339844 349.726562 530.3125 349.726562 C 524.285156 349.726562 519.382812 354.632812 519.382812 360.664062 C 519.382812 366.695312 524.285156 371.601562 530.3125 371.601562 Z M 530.3125 353.679688 C 534.164062 353.679688 537.296875 356.8125 537.296875 360.664062 C 537.296875 364.515625 534.164062 367.652344 530.3125 367.652344 C 526.460938 367.652344 523.328125 364.515625 523.328125 360.664062 C 523.328125 356.8125 526.460938 353.679688 530.3125 353.679688 Z M 530.3125 353.679688 " fill-opacity="1" fill-rule="nonzero"></path><path fill="#6db42d" d="M 690.554688 424.59375 C 696.582031 424.59375 701.484375 419.6875 701.484375 413.65625 C 701.484375 407.628906 696.582031 402.722656 690.554688 402.722656 C 684.527344 402.722656 679.621094 407.628906 679.621094 413.65625 C 679.621094 419.6875 684.527344 424.59375 690.554688 424.59375 Z M 690.554688 406.671875 C 694.40625 406.671875 697.539062 409.804688 697.539062 413.65625 C 697.539062 417.511719 694.40625 420.644531 690.554688 420.644531 C 686.703125 420.644531 683.570312 417.511719 683.570312 413.65625 C 683.570312 409.804688 686.703125 406.671875 690.554688 406.671875 Z M 690.554688 406.671875 " fill-opacity="1" fill-rule="nonzero"></path></svg>